<svg width="173" height="146" viewBox="0 0 173 146" fill="none" xmlns="http://www.w3.org/2000/svg">
<g clip-path="url(#clip0_152_53)">
<path d="M59.16 78.18C57.28 78.18 55.78 76.9 55.78 75.25C55.78 73.6 57.29 72.29 59.16 72.29C61.03 72.29 62.57 73.64 62.57 75.25C62.57 76.86 61.06 78.18 59.16 78.18Z" fill="#002699"/>
<path d="M44.21 103.59C41.51 103.59 39.07 102.91 37.72 102.02L39.26 98.19C39.26 98.19 41.03 99.22 43.3 99.26C44.96 99.29 46.06 98.26 46.06 96.88C46.06 93.65 38.48 94.41 38.25 87.75C38.12 84.05 41.23 81.13 45.66 81.05C49.57 80.98 52.09 82.45 52.09 82.45L50.71 86.12C49.94 85.74 48.65 85.12 47.08 85.09C45.2 85.05 44.41 86.14 44.53 87.4C44.78 90.12 52.63 90 52.63 96.72C52.63 100.53 49.46 103.58 44.21 103.58" fill="#002699"/>
<path d="M71.69 103.59C68.98 103.59 66.56 102.91 65.19 102.02L66.75 98.19C66.75 98.19 68.49 99.22 70.77 99.26C72.44 99.29 73.53 98.26 73.53 96.88C73.53 93.65 65.98 94.41 65.74 87.75C65.58 84.05 68.69 81.13 73.12 81.05C77.06 80.98 79.57 82.45 79.57 82.45L78.18 86.12C77.42 85.74 76.12 85.12 74.56 85.09C72.68 85.05 71.91 86.14 72.02 87.4C72.25 90.12 80.09 90 80.09 96.72C80.09 100.53 76.95 103.58 71.69 103.58" fill="#002699"/>
<path d="M28.16 103.59C25.47 103.59 23.02 102.91 21.68 102.02L23.22 98.19C23.22 98.19 24.99 99.22 27.27 99.26C28.92 99.29 30.03 98.26 30.03 96.88C30.03 93.65 22.46 94.41 22.22 87.75C22.09 84.05 25.19 81.13 29.62 81.05C33.53 80.98 36.07 82.45 36.07 82.45L34.68 86.12C33.88 85.74 32.61 85.12 31.06 85.09C29.17 85.05 28.38 86.14 28.49 87.4C28.73 90.12 36.59 90 36.59 96.72C36.59 100.53 33.42 103.58 28.16 103.58" fill="#002699"/>
<path d="M82.97 76.86L89.18 75.25V81.47H92.91V85.55H89.18V96.77C89.18 98.42 89.78 99.25 91.16 99.31C91.68 99.32 92.4 99.22 92.92 99.06V102.95C92.4 103.19 90.86 103.55 89.42 103.55C84.92 103.55 82.98 100.61 82.98 97.25V76.85L82.97 76.86Z" fill="#002699"/>
<path d="M106.7 91.8101C103.13 92.1701 101.3 93.4701 101.3 96.5301C101.3 99.0701 102.78 100.18 104.78 100.18C105.67 100.18 106.17 100.02 106.69 99.7301V91.8101H106.7ZM104.49 103.64C98.53 103.64 95.12 101.3 95.12 96.7801C95.12 91.1801 100.51 89.5201 106.7 88.9001V88.0201C106.7 85.7801 105.52 85.1301 103.34 85.1301C100.81 85.1301 97.73 86.5201 97.73 86.5201L96.78 82.6601C96.78 82.6601 99.87 81.0701 104.46 81.0701C109.05 81.0701 112.89 83.1201 112.89 89.0201V101.52C111.19 102.69 108.06 103.64 104.49 103.64Z" fill="#002699"/>
<path d="M128 103.24V88.0101C128 86.4801 127.33 85.0001 124.83 85.0001C124.23 85.0001 123.43 85.1701 122.78 85.4401V103.25H116.56V82.9201C119.08 81.8001 122.06 81.0701 124.99 81.0701C131.8 81.0701 134.24 84.0301 134.24 87.9801V103.25H128V103.24Z" fill="#002699"/>
<path d="M159.58 91.4901C159.39 87.0001 160.44 84.8001 162.9 84.8001C165.11 84.8001 166.37 86.4801 166.37 90.3701L159.57 91.4901H159.58ZM163.14 81.0701C157.12 81.0701 153.44 85.4801 153.44 92.2901C153.44 99.1001 157.39 103.64 163.79 103.64C166.67 103.64 168.72 103.17 171.07 102.17V97.6601C168.7 98.7801 166.77 99.3201 164.49 99.3201C161.44 99.3201 160.41 97.7501 159.95 94.5701L171.99 92.6901C172.27 85.3501 169.2 81.0701 163.14 81.0701Z" fill="#002699"/>
<path d="M147.09 103.64C141.4 103.64 137.25 99.6001 137.25 92.2901C137.25 84.9801 141.73 81.0701 147.05 81.0701C149.81 81.0701 151.84 81.8301 152.9 82.6401L151.49 86.1201C150.88 85.6801 150.04 85.2801 148.64 85.2801C145.65 85.2801 143.54 87.7701 143.54 92.2201C143.54 96.6701 145.86 99.1601 148.59 99.1601C149.9 99.1601 150.78 98.8401 151.48 98.2701L152.94 102.08C151.92 102.97 149.5 103.64 147.09 103.64Z" fill="#002699"/>
<path d="M12.88 91.8101C9.28998 92.1701 7.46998 93.4701 7.46998 96.5301C7.46998 99.0701 8.93998 100.18 10.97 100.18C11.84 100.18 12.35 100.02 12.88 99.7301V91.8101ZM10.67 103.64C4.68998 103.64 1.28998 101.31 1.28998 96.7801C1.28998 91.1801 6.68998 89.5201 12.89 88.9001V88.0201C12.89 85.7801 11.69 85.1301 9.52998 85.1301C6.98998 85.1301 3.90998 86.5201 3.90998 86.5201L2.97998 82.6601C2.97998 82.6601 6.05998 81.0701 10.64 81.0701C15.22 81.0701 19.1 83.1201 19.1 89.0201V101.52C17.37 102.69 14.24 103.64 10.68 103.64" fill="#002699"/>
<path d="M62.27 81.47H56.06V103.24H62.27V81.47Z" fill="#002699"/>
<path d="M126.57 42.4399C120.27 42.4399 117.2 44.6899 117.2 50.0699V65.1799H123.69V49.7199C123.69 48.1099 124.55 46.9199 126.73 46.7699C127.19 46.7399 127.68 46.7599 128.16 46.7999L128.92 42.5899C128.1 42.4899 127.32 42.4399 126.57 42.4399Z" fill="#002699"/>
<path d="M104.02 65.6001C97.73 65.6001 94.63 63.2501 94.63 57.8601V42.8401H101.1V58.3101C101.1 59.9201 101.97 61.2401 104.17 61.2401C105.32 61.2401 106.15 61.0801 106.86 60.7101V42.8401H113.34V63.5201C111.12 64.6101 107.22 65.5901 104.01 65.5901" fill="#002699"/>
<path d="M138.87 46.4399C136.02 46.4399 135.44 49.92 135.44 53.91C135.44 57.9 136.07 61.2 138.87 61.2C141.67 61.2 142.32 57.94 142.32 53.91C142.32 49.88 141.74 46.4399 138.87 46.4399ZM138.87 65.5999C132.41 65.5999 129.02 60.67 129.02 54C129.02 47.33 132.41 42.45 138.83 42.45C145.25 42.45 148.74 47.33 148.74 54C148.74 60.67 145.36 65.5999 138.88 65.5999" fill="#002699"/>
<path d="M160.47 46.2299C159.58 46.2299 159 46.3499 158.46 46.5599V61.3599C158.88 61.5199 159.44 61.6499 160.15 61.6499C163.59 61.6499 165.12 58.9599 165.12 53.9399C165.12 48.9199 163.89 46.2199 160.46 46.2199L160.47 46.2299ZM161.7 65.4599C160.33 65.4599 159.11 65.2899 158.46 65.0899V72.5099H151.99V44.0799C153.9 43.1299 156.54 42.4299 160.54 42.4299C167.22 42.4299 171.53 46.3399 171.53 53.8599C171.53 61.3799 167.49 65.4599 161.7 65.4599Z" fill="#002699"/>
<path d="M78.72 53.0999C78.51 48.4999 79.67 46.2299 82.28 46.2299C84.57 46.2299 85.87 47.9899 85.87 51.9499L78.72 53.1099V53.0999ZM82.53 42.4399C76.19 42.4399 72.41 46.9399 72.41 53.9599C72.41 61.5699 76.54 65.5999 83.21 65.5999C86.16 65.5999 88.32 65.1199 90.74 64.1099V59.4799C88.3 60.6099 86.28 61.1699 83.94 61.1699C80.74 61.1699 79.57 59.5199 79.12 56.2399L91.74 54.3699C92.04 46.8099 88.84 42.4399 82.53 42.4399Z" fill="#002699"/>
<path d="M5.73998 11.95C3.26998 15.38 -1.85002 30.03 0.689976 43.99C2.87998 58.04 12.3 68.76 27.5 70.05C34.3 70.78 40.52 69.61 43.25 67.88C43.3 67.85 44.68 66.93 44.68 65.61C44.68 65.61 28.91 67.93 22.29 60.89C16.43 54.66 20.69 46.98 20.69 46.98C23.15 41.8 29.38 35.73 29.38 35.73C29.38 35.73 37.44 27.81 39.95 23.29C41.2 21.04 41.86 18.68 41.9 16.65C41.98 12.4 38.9 10.69 37.97 10.24C29.57 6.10003 12.51 9.38003 5.74998 11.95" fill="#002699"/>
<path d="M57.35 58.32C59.82 54.89 64.95 40.24 62.4 26.28C60.21 12.23 50.79 1.51 35.59 0.22C28.79 -0.51 22.57 0.66 19.84 2.39C19.79 2.42 18.41 3.34 18.41 4.66C18.41 4.66 34.18 2.34 40.8 9.38C46.66 15.61 42.4 23.29 42.4 23.29C39.94 28.47 33.71 34.54 33.71 34.54C33.71 34.54 25.65 42.46 23.14 46.98C21.89 49.23 21.23 51.59 21.19 53.62C21.11 57.87 24.19 59.58 25.12 60.03C33.52 64.17 50.58 60.89 57.34 58.32" fill="#E4002B"/>
<path d="M119.05 123.23C118.62 123.33 118.24 123.59 117.89 124.01C115.56 126.77 114.39 128.37 114.39 128.82C114.39 128.94 114.65 129.02 115.16 129.06C116.04 129.1 116.99 128.48 118.02 127.17C119.03 125.89 119.53 124.75 119.53 123.75C119.53 123.32 119.37 123.15 119.04 123.24L119.05 123.23ZM113.91 129.77C113.71 129.95 113.49 130.5 113.26 131.41C113.03 132.32 112.92 133.12 112.92 133.8C112.92 134.68 113.5 135.12 114.65 135.12C115.8 135.12 117.06 134.47 118.56 133.17C120.01 131.91 121.01 130.6 121.57 129.26C121.57 129.26 122.62 128.96 122.33 129.83C121.69 131.76 120.59 133.3 119.06 134.56C117.61 135.76 116.16 136.37 114.7 136.37C113.62 136.37 112.81 136 112.26 135.25C111.72 134.54 111.49 133.58 111.55 132.37C111.64 130.68 112.54 128.58 114.24 126.07C116.07 123.39 117.73 122.04 119.24 122.04C120.48 122.04 120.71 123.47 120.71 123.85C120.71 124.96 120.24 126.23 119.31 127.66C118.21 129.39 116.95 130.18 115.52 130.25C114.43 130.3 113.9 129.76 113.9 129.76" fill="#E4002B"/>
<path d="M168.68 123.23C168.25 123.33 167.87 123.59 167.52 124.01C165.19 126.77 164.02 128.37 164.02 128.82C164.02 128.94 164.28 129.02 164.79 129.06C165.67 129.1 166.62 128.48 167.65 127.17C168.66 125.89 169.17 124.75 169.17 123.75C169.17 123.32 169.01 123.15 168.68 123.24V123.23ZM163.55 129.77C163.35 129.95 163.13 130.5 162.9 131.41C162.67 132.32 162.55 133.12 162.55 133.8C162.55 134.68 163.13 135.12 164.28 135.12C165.43 135.12 166.69 134.47 168.18 133.17C169.63 131.91 170.63 130.6 171.2 129.26C171.2 129.26 172.25 128.96 171.96 129.83C171.32 131.76 170.22 133.3 168.7 134.56C167.25 135.76 165.8 136.37 164.34 136.37C163.26 136.37 162.45 136 161.9 135.25C161.36 134.54 161.13 133.58 161.19 132.37C161.28 130.68 162.18 128.58 163.88 126.07C165.71 123.39 167.38 122.04 168.88 122.04C169.39 122.04 169.77 122.28 170.05 122.75C170.25 123.1 170.35 123.47 170.35 123.85C170.35 124.96 169.88 126.23 168.95 127.66C167.85 129.39 166.59 130.18 165.16 130.25C164.07 130.3 163.55 129.76 163.55 129.76" fill="#E4002B"/>
<path d="M138.43 124.74C138.17 124.77 137.85 124.54 137.47 124.13C137.08 123.72 136.7 123.52 136.32 123.52C134.94 123.52 133.53 124.8 132.1 127.37C130.83 129.64 130.2 131.41 130.2 132.69C130.2 134.11 130.8 134.82 131.98 134.82C133.16 134.82 134.33 134.43 135.48 133.65C136.55 132.93 137.46 131.97 138.22 130.79C138.29 130.67 138.38 130.58 138.49 130.61C138.95 130.7 139.08 131.22 139.01 131.32C137.03 134.34 135.39 135.2 135.17 135.35C133.64 136.36 132.72 136.35 132.22 136.35C131.05 136.34 130.17 135.92 129.58 135.08C129.09 134.38 128.84 133.51 128.84 132.46C128.84 130.8 129.58 128.78 131.06 126.4C132.76 123.65 134.57 122.28 136.48 122.27C136.81 122.27 137.28 122.41 137.91 122.69C138.73 123.05 139.15 123.49 139.19 124.01C139.21 124.23 139.1 124.68 138.42 124.75" fill="#E4002B"/>
<path d="M156.11 127.09C157.5 123.52 158.99 121.74 160.59 121.74C161.64 121.74 162.26 122.23 162.44 123.2C162.54 123.79 162.35 124.08 161.87 124.08C161.71 124.08 161.59 124.02 161.53 123.88C161.46 123.72 161.36 123.27 161.36 123.27C161.31 123.04 161.16 122.93 160.92 122.93C160.37 122.93 159.67 123.52 158.82 124.69C157.82 126.08 157.12 127.34 156.72 128.49C156.29 129.71 156.09 131.11 156.12 132.69C156.12 132.75 156.2 133.67 156.24 135.45C156.25 136.08 155.48 136.33 155.26 136.33C154.63 136.33 154.36 135.84 154.44 134.86C154.64 132.58 154.74 130.68 154.74 129.17C154.74 127.66 154.64 125.84 154.44 123.85C154.42 123.62 154.74 122.88 155.38 122.8C155.75 122.76 156.02 122.99 156.19 123.36C156.31 123.64 156.36 123.89 156.33 124.12C156.18 125.3 156.12 126.3 156.13 127.1" fill="#E4002B"/>
<path d="M108.95 122.28C108.68 121.83 108.37 121.32 107.62 121.27C107.07 121.27 106.7 121.66 106.48 122.06C106.3 122.39 106.41 122.81 106.74 123C107.06 123.18 107.45 123.08 107.64 122.78C108.3 123.77 108.5 126.47 108.5 127.52C108.5 129.75 108.03 131.77 107.33 133.17C106.64 134.6 105.74 135.28 105.14 135.25C105.02 135.25 103.7 135.14 102.84 133.35C102.41 132.47 102.27 131.25 102.27 129.87C102.27 128.22 102.51 126.33 102.82 124.4C102.97 123.46 101.82 123.62 101.77 123.62C101.43 123.62 101.15 124.02 100.91 124.82C100.67 125.69 100.47 126.37 100.34 126.85C99.83 128.31 99.21 129.8 98.47 131.32C97.35 133.64 96.47 134.81 95.84 134.81C95.57 134.81 95.45 134.07 95.56 132.69C95.62 131.51 96.13 128.95 96.68 125.63C96.85 124.62 96.47 124.33 95.96 124.33C95.38 124.33 94.96 125.23 94.71 127.06C94.48 129.19 94.37 130.95 94.31 132.16C94.27 132.83 94.34 133.6 94.55 134.46C94.85 135.7 95.34 136.32 96.01 136.32C96.95 136.32 98.09 134.89 99.43 132.04C100.06 130.55 100.56 129.33 100.96 128.36C100.77 131.07 101.07 132.75 101.59 133.92C102.62 136.2 104.57 136.63 105.14 136.63C106.63 136.63 107.75 135.39 108.56 133.78C109.36 132.14 109.86 129.94 109.87 127.52C109.87 126.38 109.64 123.49 108.94 122.28" fill="#E4002B"/>
<path d="M151.82 132.81C151.37 132.79 151.1 133.06 150.98 133.54C150.88 133.93 150.3 133.99 150.12 133.95C149.62 133.81 149.36 133.17 149.36 132.02C149.36 131.39 149.63 129.62 150.18 126.72C150.32 126.06 150.04 125.72 149.36 125.72C148.88 125.72 148.74 125.84 148.58 126.23C148.4 126.68 148.21 127.96 148.06 129.24C146.58 131.48 145.4 133 144.48 133.93C143.57 134.88 142.91 135.15 142.76 135.13C142.4 135.07 142.29 133.97 142.29 133.28C142.27 131.03 143.13 127.54 143.92 126.01C144.83 124.23 145.89 123.73 146.68 123.73C147.55 123.73 148.22 124.34 148.29 125.04C148.34 125.42 148.68 125.69 149.05 125.64C149.43 125.6 149.7 125.25 149.65 124.87C149.47 123.42 148.19 122.35 146.67 122.35C145.25 122.35 143.72 123.3 142.68 125.39C141.76 127.24 140.92 130.72 140.9 133.28C140.9 134.07 140.97 134.77 141.22 135.36C141.43 135.93 141.98 136.51 142.71 136.51C142.72 136.51 142.73 136.51 142.74 136.51C143.63 136.48 144.41 135.93 145.44 134.9C146.14 134.18 146.95 133.2 147.87 131.91C147.99 133.56 148.52 134.55 149.45 134.89C149.71 134.99 151.38 135.52 152.1 133.72C152.17 133.54 152.42 132.85 151.8 132.82" fill="#E4002B"/>
<path d="M21.32 126.13C19.57 128.44 18.72 130.57 18.73 132.52C18.73 133.37 18.79 134.83 19.71 134.83C20.81 134.85 22.06 133.77 23.31 131.36C24.41 129.29 24.94 127.63 24.94 126.45C24.95 124.27 24.24 124.03 23.91 124.02C23.34 124.02 22.68 124.32 21.94 125.03C21.89 125.36 21.68 125.64 21.33 126.13H21.32ZM16.77 132.8C16.77 131.01 17.2 129.08 18.03 127.03C18.89 125 19.78 123.6 20.99 123.81C21.19 123.41 21.65 123.1 22.27 122.78C22.97 122.45 23.48 122.27 23.91 122.26C27.2 122.17 27.09 126.81 27.09 126.81C27.12 128.19 26.44 130.19 25.22 132.39C23.76 135.03 22.13 136.52 20.26 136.69C20.26 136.69 16.93 137.08 16.76 132.8" fill="#002699"/>
<path d="M28.04 133.1C28.04 132.41 28.37 130.79 29.01 128.09C29.38 126.56 29.73 125.4 30.05 124.61C30.4 123.84 30.6 123.33 31.2 123.24C31.5 123.17 32.6 123.54 32.59 124.31C32.59 124.65 32.15 125.63 32.15 125.63C30.73 129.47 30.03 132.18 30.03 133.64C30.02 134.3 30.15 134.7 30.2 134.73C30.36 134.75 31.02 134.3 31.82 133.28C32.72 132.16 33.62 130.73 34.51 128.97C35.51 127.01 36 125.51 36 124.57C36.01 124.15 36.28 122.91 37.4 122.79C38.41 122.81 38.64 123.6 38.57 123.97C38.57 124.16 38.47 124.66 38.27 125.69C38.08 126.69 37.98 127.63 37.98 128.52C37.98 130.28 38.12 131.58 38.37 132.41C38.64 133.26 38.95 133.51 39.28 133.51C39.4 133.51 39.62 133.43 39.89 133.15C40.05 132.99 40.26 132.83 40.53 132.65C40.65 132.57 40.81 132.58 40.92 132.68C41.18 132.92 41.38 133.11 41.41 133.45C41.41 134.03 41.02 134.48 40.42 134.82C39.94 135.09 39.54 135.25 39.16 135.25C38.15 135.25 37.33 134.66 36.79 133.63C36.33 132.76 36.03 131.58 35.85 130.07C34.94 131.96 34.33 133.15 34.01 133.66C31.97 136.9 29.9 136.61 29.9 136.61C29.27 136.61 28 136.23 28.01 133.09" fill="#002699"/>
<path d="M59.84 134.53C59.47 134.96 59.29 134.98 59.27 134.98C59.27 134.98 58.77 135.2 58.29 133.82C58.15 133.17 57.22 130.84 58.55 126.14C58.55 126.14 59.04 124.88 59.05 124.49C59.05 123.41 58.28 123.27 57.97 123.28C57.44 123.29 57.08 123.7 56.82 124.27C55.97 126.27 55.76 129.48 55.76 130.51C55.76 131.65 55.96 132.8 56.37 133.99C56.93 135.7 57.85 136.72 59.12 136.72C59.46 136.72 60.92 136.36 60.9 135.3C60.72 134.22 60.04 134.33 59.86 134.53H59.84ZM59.63 119.98H59.64C60.06 119.98 60.35 119.87 60.6 119.6C60.75 119.45 61.27 118.48 60.57 117.72C59.85 117.04 58.97 117.49 58.75 117.83C58.19 118.69 58.55 119.28 58.75 119.53C58.96 119.8 59.28 119.97 59.62 119.97" fill="#002699"/>
<path d="M79.53 126.82C81.47 124.39 80.77 122.94 80.77 122.94C80.49 122.98 80.09 123.16 79.44 123.79C77.87 125.32 76.5 127.21 76.11 128.28C76.11 128.28 77.59 129.24 79.53 126.81V126.82ZM73.45 135.11C72.56 133.92 72.67 132.15 72.68 132.01C72.78 130.22 73.71 128.08 75.43 125.54C77.28 122.83 78.99 121.38 80.7 121.36C81.31 121.36 81.84 121.69 82.15 122.24C82.38 122.64 82.5 123.06 82.5 123.51C82.5 124.71 82 126.03 81.05 127.5C79.93 129.28 78.56 130.25 76.99 130.24C76.38 130.24 75.86 130.13 75.45 129.88C75.34 130.12 75.18 130.55 75.04 131.14C74.81 132.04 74.7 132.81 74.7 133.45C74.73 134.14 75.01 134.39 76.1 134.44C77.08 134.44 78.33 133.85 79.79 132.58C81.21 131.34 82.18 130.07 82.72 128.79C82.77 128.67 82.89 128.59 83.02 128.59C83.02 128.59 84.5 128.37 84.09 129.6C83.42 131.55 82.29 133.18 80.72 134.47C79.23 135.71 77.7 136.36 76.15 136.36H76.12C74.98 136.36 74.05 135.94 73.44 135.11" fill="#002699"/>
<path d="M14.43 127.95C14.22 126.46 13.62 122.99 13.62 122.99C13.51 121.85 13.08 121.04 12.2 121.01C11.13 120.96 10.88 121.85 10.9 122.2C10.96 123.36 11 124.42 11 125.39C11 128.57 10.64 130.74 10.07 131.95C9.47 133.16 8.96 133.43 8.02 133.47C6.91 133.45 6.14 132.96 5.5 132.03C4.88 131.1 4.51 129.7 4.51 128.17C4.51 126.39 5 124.44 6.01 122.82C6.3 122.36 6.16 121.75 5.7 121.46C5.24 121.17 4.64 121.31 4.35 121.77C3.12 123.74 2.55 126.02 2.55 128.16C2.55 130 2.97 131.74 3.87 133.11C4.75 134.47 6.23 135.44 8.02 135.42C8.05 135.42 10.61 135.52 11.85 132.76C12.18 132.02 12.43 131.15 12.61 130.14C12.69 131 12.73 131.79 12.73 132.51C12.73 135.28 12.18 137.78 11.08 140.03C9.8 142.63 8.19 143.84 6.17 143.84C6.03 143.84 4.79 143.84 3.39 142.82C2.13 141.89 1.78 140.15 1.71 139.91C1.59 139.51 1.33 139.15 0.9 139.15C0.07 139.17 0 139.91 0 140.2C0 141.31 0.63 142.47 1.79 143.69C3.12 145.12 4.68 145.88 6.41 145.87H6.43C9.35 145.87 11.62 143.96 13.16 140.39C14.29 137.8 14.85 135.2 14.85 132.59C14.85 129.78 14.48 128.27 14.43 127.93" fill="#002699"/>
<path d="M72.6 122.86C72.18 122.52 71.6 122.86 71.18 123.14C70.41 123.8 69.67 124.86 68.93 126.3C68.51 127.12 66.33 132.61 66.33 132.61C66.28 132.47 65.12 129.28 64.24 127.14C63.74 125.91 63.8 125.83 63.43 125.19C62.56 123.65 61.9 124.11 61.54 124.35C60.79 124.85 61.07 125.51 61.13 125.64C63.84 130.25 64.39 133.36 64.64 134.16C64.86 134.81 65.06 135.31 65.28 135.66C65.5 136.01 65.74 136.28 66.13 136.29C66.54 136.25 66.71 135.97 66.96 135.61C67.2 135.23 67.47 134.69 67.77 133.97C68.6 132 69.43 130.04 70.26 128.08C70.92 126.68 71.5 125.62 71.98 124.94C72.22 124.59 72.44 124.35 72.62 124.21C72.94 123.87 73.14 123.28 72.6 122.85" fill="#002699"/>
<path d="M50.44 135.64C49.42 134.45 48.8 132.15 48.77 128.09C48.77 124.61 49.32 119.89 50.92 113.77C51.06 113.23 51.62 112.9 52.15 113.04C52.69 113.18 53.01 113.74 52.87 114.28C51.31 120.27 50.78 124.82 50.78 128.09C50.75 131.86 51.58 133.97 51.92 134.27C52.14 134.5 52.52 134.77 53.63 134.25C54.19 133.87 54.8 134.05 55.1 134.52C55.4 134.99 55.26 135.62 54.79 135.93C54.6 136.05 53.43 136.67 52.64 136.63C52.3 136.61 51.43 136.8 50.44 135.65" fill="#002699"/>
</g>
<defs>
<clipPath id="clip0_152_53">
<rect width="172.01" height="145.9" fill="white"/>
</clipPath>
</defs>
</svg>
